<svg xmlns="http://www.w3.org/2000/svg" viewBox="0 0 128 128">
  <defs>
    <linearGradient id="bg" x1="0" y1="0" x2="0" y2="1">
      <stop offset="0%" stop-color="#41241a"/>
      <stop offset="100%" stop-color="#120c0b"/>
    </linearGradient>
  </defs>
  <rect width="128" height="128" rx="64" fill="url(#bg)"/>
  <path d="M17 124c8-24 23-33 47-33s39 9 47 33" fill="#3b2d2a"/>
  <path d="M44 38c4-18 18-28 38-28 11 0 20 5 27 12-3 0-9 0-16 4-5-4-13-5-20-5-13 0-20 4-29 17z" fill="#8f4f2a"/>
  <circle cx="63" cy="58" r="29" fill="#d8a177"/>
  <path d="M34 43c4-16 17-24 30-24 14 0 28 6 35 24-9-8-22-14-34-14-11 0-22 4-31 14z" fill="#2e2320"/>
  <ellipse cx="53" cy="59" rx="4.5" ry="5.5" fill="#221914"/>
  <ellipse cx="74" cy="59" rx="4.5" ry="5.5" fill="#221914"/>
  <path d="M52 51c4-3 8-4 12-4" stroke="#2f2019" stroke-width="3" stroke-linecap="round"/>
  <path d="M67 47c4 0 8 1 11 4" stroke="#2f2019" stroke-width="3" stroke-linecap="round"/>
  <path d="M61 68c1 3 1 6 0 8" stroke="#8d5f45" stroke-width="3" stroke-linecap="round"/>
  <path d="M53 79c7 5 15 5 22 0" stroke="#7c3829" stroke-width="4" stroke-linecap="round" fill="none"/>
  <path d="M48 73c5 12 10 17 16 17 6 0 11-5 16-17-1 15-8 28-16 28-10 0-16-11-16-28z" fill="#5a2d1d"/>
  <path d="M54 71c3 3 7 5 10 5s7-2 10-5" stroke="#2a1b16" stroke-width="3" stroke-linecap="round" fill="none"/>
  <path d="M38 110c7-14 15-23 25-23 9 0 17 9 26 23" fill="#7d4d2a"/>
  <path d="M39 110h50l10 14H29z" fill="#bd8e4a"/>
  <circle cx="34" cy="32" r="8" fill="#b96b46"/>
  <path d="M30 32h8v8h-8z" fill="#d59662"/>
</svg>
